<svg width="564" height="498" viewBox="0 0 564 498" fill="none" xmlns="http://www.w3.org/2000/svg">
<path d="M191 55H0V60H191V55Z" fill="#C26959"/>
<path d="M191 65H0V70H191V65Z" fill="#C26959"/>
<path d="M65 75H0V80H65V75Z" fill="#C26959"/>
<path d="M418.399 418.451C464.779 418.451 502.378 380.853 502.378 334.472C502.378 288.092 464.779 250.493 418.399 250.493C372.018 250.493 334.42 288.092 334.42 334.472C334.42 380.853 372.018 418.451 418.399 418.451Z" fill="#BFCDCD"/>
<path d="M419.38 422.664C419.38 481.833 354.626 460.161 274.749 460.161C194.872 460.161 130.119 481.833 130.119 422.664C130.119 363.496 194.872 245.894 274.749 245.894C354.626 245.894 419.38 363.496 419.38 422.664Z" fill="#C26959"/>
<path d="M563.61 472.282C546.858 469.444 530.748 467.006 515.278 464.97L521.394 453.113C519.332 452.397 510.272 459.187 510.272 459.187L518.297 424.77C507.926 426.02 502.653 461.162 502.653 461.162L491.066 449.281L496.676 462.639C455.983 457.719 415.04 455.143 374.051 454.921L379.285 444.773C377.223 444.057 368.164 450.847 368.164 450.847L376.189 416.43C365.818 417.681 360.545 452.823 360.545 452.823L348.958 440.941L354.899 455.089C341.449 455.358 329.172 455.933 318.042 456.694L319.889 453.113C318.581 452.659 314.46 455.224 311.619 457.161C310.8 457.225 309.999 457.291 309.194 457.357L316.793 424.77C308.333 425.79 303.266 449.36 301.685 458.013C300.572 458.116 299.469 458.221 298.385 458.328L289.643 449.364C296.966 438.001 307.686 429.033 307.686 429.033C293.951 433.118 286.747 439.963 282.982 446.345C282.646 413.725 288.07 381.303 299.004 350.569C299.004 350.569 270.616 412.345 274.238 453.812L274.626 460.401C235.903 456.505 201.857 454.985 172.547 454.921L177.781 444.773C175.719 444.057 166.659 450.847 166.659 450.847L174.684 416.43C164.313 417.681 159.04 452.823 159.04 452.823L147.453 440.941L153.395 455.089C129.831 455.478 106.303 457.077 82.9031 459.878C88.1971 444.069 106.181 429.033 106.181 429.033C92.4469 433.118 85.2425 439.963 81.4779 446.345C81.1415 413.725 86.5654 381.303 97.4999 350.569C97.4999 350.569 69.1114 412.345 72.7337 453.812L73.167 461.175C49.0999 464.621 37 468.207 37 468.207L362.106 472.282C356.436 471.321 350.842 470.409 345.324 469.546L563.61 472.282ZM289.615 449.407L293.57 458.825C290.383 459.166 287.319 459.518 284.408 459.878C285.708 456.187 287.456 452.671 289.615 449.407V449.407Z" fill="#3F3D56"/>
<path d="M465.406 463.621C465.231 463.334 461.09 456.42 459.654 442.063C458.338 428.891 459.184 406.688 470.699 375.718C492.513 317.046 465.672 269.707 465.397 269.235L466.722 268.467C466.791 268.586 473.717 280.656 477.809 299.875C483.215 325.356 481.246 351.85 472.134 376.251C450.357 434.823 466.547 462.55 466.713 462.824L465.406 463.621Z" fill="#3F3D56"/>
<path d="M456.877 265.79C462.371 265.79 466.825 261.336 466.825 255.842C466.825 250.348 462.371 245.894 456.877 245.894C451.382 245.894 446.928 250.348 446.928 255.842C446.928 261.336 451.382 265.79 456.877 265.79Z" fill="#C26959"/>
<path d="M488.251 302.522C493.746 302.522 498.2 298.068 498.2 292.573C498.2 287.079 493.746 282.625 488.251 282.625C482.757 282.625 478.303 287.079 478.303 292.573C478.303 298.068 482.757 302.522 488.251 302.522Z" fill="#3F3D56"/>
<path d="M466.825 327.009C472.319 327.009 476.773 322.555 476.773 317.061C476.773 311.567 472.319 307.113 466.825 307.113C461.33 307.113 456.877 311.567 456.877 317.061C456.877 322.555 461.33 327.009 466.825 327.009Z" fill="#C26959"/>
<path d="M492.843 347.671C498.337 347.671 502.791 343.217 502.791 337.723C502.791 332.228 498.337 327.775 492.843 327.775C487.349 327.775 482.895 332.228 482.895 337.723C482.895 343.217 487.349 347.671 492.843 347.671Z" fill="#C26959"/>
<path d="M471.416 463.987C471.416 463.987 461.468 439.5 491.312 421.134L471.416 463.987Z" fill="#3F3D56"/>
<path d="M459.181 463.543C459.181 463.543 454.654 437.502 419.612 437.726L459.181 463.543Z" fill="#3F3D56"/>
<path d="M298.305 38.9221C287.393 20.4838 265.804 19.6245 265.804 19.6245C265.804 19.6245 244.767 16.9343 231.271 45.016C218.693 71.1904 201.333 96.4624 228.476 102.59L233.38 87.3294L236.416 103.726C240.281 104.004 244.158 104.07 248.03 103.924C277.099 102.986 304.782 104.199 303.891 93.7677C302.706 79.9009 308.805 56.6634 298.305 38.9221Z" fill="#2C3B4E"/>
<path d="M219.652 187.735L217.356 229.058L284.698 235.946L286.993 193.092L264.036 178.553L219.652 187.735Z" fill="#A0616A"/>
<path d="M400.631 278.416C398.612 258.895 318.439 250.033 299.171 248.183L291.967 243.981L289.671 219.493C289.671 219.493 218.504 213.371 213.147 212.606C207.791 211.84 203.199 221.789 203.199 224.084C203.199 225.743 202.198 237.592 198.177 244.614C189.495 251.591 163.024 273.543 163.024 281.86C163.024 291.808 184.068 416.925 184.068 416.925L186.364 442.943L207.791 446.769L206.26 365.654C206.26 365.654 213.913 318.974 203.199 305.965V300.608C203.199 300.608 234.622 292.422 245.696 283.508C248.905 282.818 257.923 281.12 262.904 282.597C263.587 282.999 264.374 283.412 265.25 283.833C265.362 283.933 265.468 284.041 265.566 284.156C265.566 284.156 265.598 284.108 265.653 284.023C279.979 290.729 316.73 299.187 331.76 296.782C343.352 295.013 355.203 297.167 365.43 302.904C357.013 313.617 363.134 344.227 363.134 344.227L363.9 410.038L374.613 423.047H389.153V387.081C389.153 387.081 402.927 300.608 400.631 278.416Z" fill="#2C3B4E"/>
<path d="M259.062 89.4019C273.009 89.4019 284.315 78.0958 284.315 64.1489C284.315 50.2021 273.009 38.896 259.062 38.896C245.115 38.896 233.809 50.2021 233.809 64.1489C233.809 78.0958 245.115 89.4019 259.062 89.4019Z" fill="#A0616A"/>
<path d="M243.757 80.219C243.757 80.219 247.583 97.0543 242.226 98.5848C237.989 99.9891 233.89 101.782 229.983 103.941L223.861 123.838V143.734L298.089 152.152L300.385 145.264V135.316L291.967 120.012L288.141 116.185C288.141 116.185 271.306 97.8195 275.132 80.219H243.757Z" fill="#A0616A"/>
<path d="M309.95 141.056C309.95 141.056 312.246 167.839 309.95 180.083C307.655 192.327 308.42 210.693 308.42 210.693L291.584 207.632V166.309L295.411 144.117L309.95 141.056Z" fill="#A0616A"/>
<path d="M268.446 35.3279C277.067 35.3279 284.056 28.3391 284.056 19.7179C284.056 11.0967 277.067 4.10791 268.446 4.10791C259.825 4.10791 252.836 11.0967 252.836 19.7179C252.836 28.3391 259.825 35.3279 268.446 35.3279Z" fill="#2C3B4E"/>
<path d="M251.193 15.61C251.193 11.7547 252.62 8.03589 255.199 5.16996C257.778 2.30404 261.326 0.493726 265.16 0.0877657C262.983 -0.144071 260.781 0.084649 258.698 0.759061C256.615 1.43347 254.697 2.5385 253.069 4.00236C251.441 5.46622 250.14 7.25618 249.248 9.25596C248.357 11.2557 247.897 13.4206 247.897 15.61C247.897 17.7994 248.357 19.9643 249.248 21.964C250.14 23.9638 251.441 25.7538 253.069 27.2177C254.697 28.6815 256.615 29.7865 258.698 30.4609C260.781 31.1354 262.983 31.3641 265.16 31.1322C261.326 30.7263 257.778 28.916 255.199 26.05C252.62 23.1841 251.193 19.4653 251.193 15.61V15.61Z" fill="#2C3B4E"/>
<path d="M293.481 37.1451L272.152 25.972L242.698 30.543L236.604 57.458L251.773 56.874L256.011 46.986V56.711L263.011 56.442L267.074 40.699L269.613 57.458L294.496 56.9501L293.481 37.1451Z" fill="#2C3B4E"/>
<path d="M309.185 235.946H215.826V329.305H309.185V235.946Z" fill="#F2F2F2"/>
<path d="M200.521 128.047L186.746 184.674C186.746 184.674 181.39 196.918 193.634 204.571C205.877 212.223 233.426 222.171 233.426 222.171C233.426 222.171 257.914 255.842 260.975 242.068C264.036 228.293 242.609 210.693 242.609 210.693L205.112 186.97L219.652 147.178L200.521 128.047Z" fill="#A0616A"/>
<path d="M300.002 199.214C300.002 199.214 311.481 197.683 310.715 210.693C309.95 223.702 294.645 225.232 294.645 225.232C294.645 225.232 287.758 254.311 277.81 248.955C267.862 243.598 283.167 214.519 283.167 214.519L296.176 204.571L300.002 199.214Z" fill="#A0616A"/>
<path d="M226.156 123.073L238.4 97.8196L213.913 106.237C213.913 106.237 200.138 113.124 199.373 129.194C198.608 145.265 216.973 153.682 216.973 153.682C216.973 153.682 220.034 176.639 218.504 179.7C216.973 182.761 218.504 195.005 218.504 195.005C218.504 195.005 247.966 186.97 262.505 196.918C277.045 206.866 288.906 201.127 288.906 201.127C288.906 201.127 288.141 181.996 294.263 178.935C300.385 175.874 305.741 161.335 300.385 152.152C300.385 152.152 312.629 153.682 311.863 142.204C311.098 130.725 304.976 120.777 295.028 116.185C285.08 111.594 283.98 110.86 283.98 110.86L298.089 136.847V143.734C298.089 143.734 273.112 127.792 248.401 126.463C240.34 126.094 232.423 128.7 226.157 133.786L226.156 133.786V123.073Z" fill="#2C3B4E"/>
<path d="M206.6 417.245C206.6 417.245 217.459 422.355 220.653 424.272C223.846 426.188 236.622 422.355 234.067 433.853C231.512 445.35 220.653 456.209 220.653 456.209C220.653 456.209 215.543 461.958 215.543 465.791C215.543 469.623 202.768 499.006 187.437 497.728C172.107 496.451 174.662 481.121 174.662 481.121L177.856 464.513C177.856 464.513 184.244 436.408 185.521 437.047C186.799 437.685 189.992 442.157 189.992 442.157C189.992 442.157 205.961 435.769 206.6 417.245Z" fill="#D1A173"/>
<path d="M365.855 398.114C365.855 398.114 354.997 403.224 351.803 405.141C348.609 407.057 335.834 403.224 338.389 414.722C340.944 426.22 351.803 437.078 351.803 437.078C351.803 437.078 356.913 442.827 356.913 446.66C356.913 450.492 369.688 479.875 385.018 478.597C400.348 477.32 397.793 461.99 397.793 461.99L394.599 445.382C394.599 445.382 388.212 417.277 386.934 417.916C385.657 418.554 382.463 423.026 382.463 423.026C382.463 423.026 366.494 416.638 365.855 398.114Z" fill="#D1A173"/>
</svg>
